<?xml version="1.0" encoding="UTF-8"?>
<svg width="14px" height="22px" viewBox="0 0 14 22" version="1.1" xmlns="http://www.w3.org/2000/svg" xmlns:xlink="http://www.w3.org/1999/xlink">
    <!-- Generator: Sketch 64 (93537) - https://sketch.com -->
    <title>Group 2 Copy</title>
    <desc>Created with Sketch.</desc>
    <defs>
        <path d="M0.272727273,7.33333333 C0.160265697,7.33333333 0.0690909091,7.23714063 0.0690909091,7.11848958 L0.0690909091,0.21484375 C0.0690909091,0.0961927083 0.160265697,0 0.272727273,0 C0.385188848,0 0.476363636,0.0961927083 0.476363636,0.21484375 L0.476363636,7.11848958 C0.476363636,7.23714063 0.385188848,7.33333333 0.272727273,7.33333333 Z" id="path-1"></path>
        <filter x="-1718.8%" y="-68.2%" width="3537.5%" height="290.9%" filterUnits="objectBoundingBox" id="filter-2">
            <feOffset dx="0" dy="2" in="SourceAlpha" result="shadowOffsetOuter1"></feOffset>
            <feGaussianBlur stdDeviation="2" in="shadowOffsetOuter1" result="shadowBlurOuter1"></feGaussianBlur>
            <feColorMatrix values="0 0 0 0 0   0 0 0 0 0   0 0 0 0 0  0 0 0 0.5 0" type="matrix" in="shadowBlurOuter1"></feColorMatrix>
        </filter>
    </defs>
    <g id="Page-1" stroke="none" stroke-width="1" fill="none" fill-rule="evenodd">
        <g id="Artboard-Copy-8" transform="translate(-186.000000, -288.000000)" fill-rule="nonzero">
            <g id="Group-4" transform="translate(31.000000, 210.000000)">
                <g id="Group-2-Copy" transform="translate(155.000000, 78.000000)">
                    <g id="Group" fill="#FF5D71">
                        <path d="M13.9705455,6.798 C13.9705455,3.16520635 10.8992727,0.17984127 7.07890909,0.17984127 C3.296,0.17984127 0.187272727,3.1292381 0.187272727,6.798 C0.187272727,8.48850794 0.861454545,10.0351429 1.94763636,11.2220952 C2.39709091,11.9774286 3.10872727,13.164381 4.04509091,14.8908571 C5.84290909,18.271873 7.07890909,21.7248254 7.07890909,21.7248254 C7.07890909,21.7248254 8.31490909,18.271873 10.1127273,14.8908571 C11.0490909,13.1284127 11.7232727,11.9414603 12.2101818,11.2220952 C13.2963636,10.0711111 13.9705455,8.52447619 13.9705455,6.798 Z" id="Path"></path>
                        <path d="M0.224727273,6.798 C0.224727273,8.48850794 0.898909091,10.0351429 1.98509091,11.2220952 C2.43454545,11.9774286 3.14618182,13.164381 4.08254545,14.8908571 C5.88036364,18.271873 7.11636364,21.7248254 7.11636364,21.7248254 L7.11636364,0.215809524 C3.296,0.215809524 0.224727273,3.16520635 0.224727273,6.798 Z" id="Path" opacity="0.7"></path>
                    </g>
                    <g id="success" transform="translate(4.000000, 4.000000)">
                        <path d="M6.52665738,0.480307486 C6.493959,0.46069285 5.71632556,0 4.91193891,0 C4.10755225,0 3.32991882,0.46069285 3.29722044,0.480307486 C3.29045412,0.484369251 2.61264024,0.886203424 1.95578223,0.886203424 C1.30261941,0.886203424 0.62091326,0.484221551 0.614344023,0.480307486 C0.501123222,0.412453844 0.34817496,0.43995569 0.272727273,0.541765693 L0.341047338,4.4085814 C0.373762139,4.42819604 1.15139558,4.88888889 1.95578223,4.88888889 C2.76016889,4.88888889 3.53780232,4.42819604 3.5705007,4.4085814 C3.57726701,4.40451964 4.25508089,4.00268546 4.91193891,4.00268546 C5.56510173,4.00268546 6.24680788,4.40466734 6.25337712,4.4085814 C6.32895619,4.45389594 6.42616447,4.45812017 6.5062599,4.41957033 C6.58635532,4.38102048 6.63636364,4.30594428 6.63636364,4.22423632 L6.63636364,0.664652568 C6.63636364,0.590580732 6.59519094,0.521397784 6.52665738,0.480307486 Z" id="Path" fill="#FFFFFF"></path>
                        <g id="Path">
                            <use fill="black" fill-opacity="1" filter="url(#filter-2)" xlink:href="#path-1"></use>
                            <use fill="#FFFFFF" xlink:href="#path-1"></use>
                        </g>
                    </g>
                </g>
            </g>
        </g>
    </g>
</svg>