<?xml version="1.0" encoding="UTF-8"?>
<svg width="558px" height="279px" viewBox="0 0 558 279" version="1.1" xmlns="http://www.w3.org/2000/svg" xmlns:xlink="http://www.w3.org/1999/xlink">
    <title>Group 2</title>
    <g id="Page-1" stroke="none" stroke-width="1" fill="none" fill-rule="evenodd" opacity="0.367420015">
        <g id="Group-2" fill="#FFA9A9" fill-rule="nonzero">
            <path d="M271.16919,236.916869 C274.755821,227.73111 278.661263,222.072204 278.701114,222.012427 L277.664976,221.295101 L276.628839,220.577775 C276.469433,220.796958 272.982431,225.858092 269.475503,234.366376 C266.068205,232.712541 255.886159,228.70747 237.793601,228.827025 C233.190758,228.84695 224.044851,228.229253 212.468005,227.213041 L239.547065,175.964077 L278.980074,195.15255 L278.980074,192.362948 L257.480217,181.901943 L276.190473,146.434152 C277.126982,146.832667 278.043565,147.211256 278.980074,147.589844 L278.980074,144.879946 C272.623768,142.24975 266.446793,139.420297 260.429224,136.451364 L278.980074,101.362163 L278.980074,95.9822168 L271.687259,109.790744 L238.112413,74.1436223 C250.167476,68.0064991 264.055706,62.4272961 279,59.1196258 L279,56.5492073 C275.55285,57.3063848 272.065848,58.1831167 268.578846,59.1993287 L216.403007,0.0199257249 L213.552899,1.35494929 L265.968576,59.9764319 C258.934795,62.148336 251.841237,64.8781603 244.747679,68.1061277 C233.728753,73.1274104 222.669976,79.4239394 211.870233,86.8163834 C206.928653,90.1838309 202.505142,93.4915012 198.639551,96.5202114 C180.507142,81.914655 165.403442,66.9902871 153.587488,54.0186402 C156.118055,52.0459934 162.454435,46.6859734 168.472004,38.3769462 C172.935366,32.2198972 176.282888,25.7241108 178.414941,19.0689187 C180.407513,12.8321668 181.344022,6.45593487 181.204542,0.0199257249 L178.693901,0.0199257249 C179.032638,15.860877 172.477075,28.5934152 166.499357,36.8426653 C160.581417,45.0321383 154.205185,50.3523068 151.913727,52.1456221 C135.315598,33.7143265 123.220683,17.0165691 115.888016,6.09727182 C116.864377,5.1209113 117.78096,4.26410513 118.677617,3.48700186 C120.231824,2.11212684 121.726253,0.97636052 123.121054,0 L118.916726,0 C118.378732,0.418440223 117.840737,0.876731895 117.282817,1.35494929 C116.326382,2.17190401 115.389873,3.04863591 114.453364,3.96521925 C113.516855,2.51064134 112.660049,1.19554349 111.882945,0 L108.914012,0 C109.95015,1.63390944 111.185545,3.58663048 112.660049,5.79838594 C108.395943,10.3215255 104.271318,15.8409513 100.385802,22.2968862 C94.7069704,31.721754 89.4864305,43.1790459 84.8238109,56.4296529 L59.4982145,25.9432938 L83.6083417,0 L80.181117,0 L57.8842308,23.9905728 L37.9385802,0 L34.6707613,0 L56.1506928,25.8436652 L41.7443937,41.3458792 L0.0199257249,14.5457792 L0.0199257249,17.5346379 L40.0108556,43.238823 L17.6342665,67.3290244 L19.4674332,69.0426368 L34.3918012,52.9825025 L76.9132981,78.1686188 C68.9031567,97.1777603 58.0436366,115.369947 47.223968,131.031567 L24.3293101,111.165619 L40.7481074,91.0207113 L38.7953864,89.4266533 L31.363091,98.5526353 L0.0199257249,66.0338523 L0.0199257249,69.6404085 L29.7889587,100.525282 L22.456292,109.53171 L0.0199257249,90.0443508 L0.0199257249,93.3719469 L20.862234,111.464505 L1.03613769,135.773889 L2.84217094e-14,134.97686 L2.84217094e-14,138.145051 L26.4613627,158.628696 C21.7788173,164.38723 17.2756035,169.627696 13.1509784,174.27039 L2.84217094e-14,157.134267 L2.84217094e-14,161.258892 L11.4572918,176.18326 C7.05370661,181.084988 3.14826453,185.249464 0.0199257249,188.477432 L0.0199257249,192.083988 C3.32759606,188.696615 7.81088416,183.994144 13.0314241,178.195758 L35.6271961,207.626053 L35.706899,207.725682 C35.8065276,207.845236 46.5863448,219.06342 58.6613341,230.361306 C59.9166548,231.536923 61.1520497,232.67269 62.3475932,233.768604 L35.8862305,252.558563 L37.3408085,254.610913 L64.2405371,235.502143 C77.5110698,247.497429 86.5174975,253.933438 91.0207113,254.610913 C93.9298672,255.049279 104.570204,255.128982 118.996429,255.009427 L116.127125,273.420797 L43.1192687,269.754464 L42.9997143,272.265105 L80.7390373,274.158049 L81.5360663,278.980074 L84.1064848,278.980074 L83.3293815,274.297529 L115.768462,275.931438 L115.290244,279 L117.820811,279 L121.546922,255.009427 C136.152478,254.869947 154.205185,254.53121 171.959006,254.132695 C173.194401,257.221183 177.538209,268.997286 175.844522,279 L178.395015,279 C179.052564,274.815598 178.813455,269.993572 177.71754,264.553849 L232.592987,275.194187 L232.712541,275.214112 L262.880089,275.214112 C262.979717,276.449507 263.099272,277.744679 263.238752,279 L265.769319,279 C265.629839,277.744679 265.510284,276.449507 265.410656,275.214112 L278.980074,275.214112 L278.980074,272.703471 L265.211398,272.703471 C264.812884,265.769319 265.39073,259.253607 266.466719,253.435295 C268.022962,253.599486 283.666929,255.918547 313.39862,260.39248 L318.313455,252.937152 L315.991244,250.074286 L312.459719,258.225434 C283.96183,253.579522 268.796878,251.159212 266.964862,250.964505 C268.14048,245.465005 269.694686,240.702757 271.16919,236.916869 Z M274,145.754967 L255.4375,181 L241,173.966887 L259.44351,139 C264.26262,141.403974 269.121394,143.649007 274,145.754967 Z M213.65277,88.5548173 C219.949172,84.269103 227.584809,79.5249169 236.219874,75 L271,111.817276 L258.707025,135 C237.079383,124.056478 217.790405,111.099668 201,97.7840532 C204.697887,94.9136213 208.935465,91.7641196 213.65277,88.5548173 Z M151.15748,55.3408521 C154.405512,58.9699248 157.673228,62.518797 161,66.0075188 L123.34252,79 L121,57.3458647 L150.84252,55 C150.96063,55.1203008 151.059055,55.2205514 151.15748,55.3408521 Z M114.006746,8 C121.276261,18.8879068 133.026984,35.1795902 149,53.1988751 L87,58 C96.141664,31.7444757 106.060071,16.6380072 114.006746,8 Z M36,51.2829876 L57.7562604,28 L84,59.3892116 C83.5993322,60.5643154 83.1986644,61.7593361 82.7979967,62.9543568 C81.375626,67.3360996 79.7529215,71.6780083 77.9899833,76 L36,51.2829876 Z M84.9459992,63.9321686 C85.3279464,62.7697842 85.7098936,61.6274409 86.0918408,60.5051387 L118.698069,58 L123,97 L72,94.7954779 C77.3874655,84.1937307 81.7094994,73.852518 84.9459992,63.9321686 Z M61.1728861,114.055172 C64.7206954,108.173668 67.9894635,102.371912 70.9393274,96.649906 L123.040302,98.9028213 L124.415576,111.463323 L126.907016,111.184201 L123.638247,81.4776176 L163.421547,68 C174.084906,78.8060188 185.166828,88.8743574 196.567653,98.1053292 C187.319431,105.522006 160.891652,130.179711 160.831857,130.25946 L163.421547,131.915698 C163.501273,131.835949 189.212925,107.216677 198.580736,99.7202508 C201.67012,102.172539 204.759505,104.584953 207.888752,106.917618 C214.84485,112.121254 221.900606,117.005893 229.056019,121.571536 L219.18992,148.90558 L126.907016,119 L128.363363,122.94721 L218.332865,151.258182 L208.147862,179.44953 L210.49978,180.306834 L231.208622,122.94721 C239.699447,128.27047 248.289929,133.135172 257,137.541317 L209.722451,227 C197.484503,225.903448 182.854772,224.428088 168.105453,222.872978 C168.085521,222.553981 168.06559,222.254922 168.06559,221.935925 C167.667594,213.567935 167.280645,201.358165 173.274746,195.71837 C182.890164,186.671312 201.86852,185.919397 210.49978,180.306834 L209.08762,177.501098 C200.9157,182.804421 172.231276,186.108589 168.86285,195.698433 C168.86285,195.698433 168.86285,195.71837 168.86285,195.71837 L131.511195,190.654295 L136.536013,164.416803 L126.907016,111.024702 L124.415576,111.463323 L133.045922,164.416803 L79.9284397,155.744075 C79.0913162,150.241379 65.0204588,105.919663 65.0005273,105.780101 L64.0351669,106.917618 C64.0537189,107.056798 68.9665896,124.149713 78.7737791,158.196364 C80.2700585,171.46152 81.3591922,179.968103 82.0411801,183.716113 L52.5824041,175.721254 L30,158.196364 C30.3189042,157.817555 30.6178769,157.418809 30.9367811,157.04 C42.4970586,142.565517 52.6820616,128.110972 61.1728861,114.055172 Z M91.1968912,214.167376 C89.0915371,206.939007 86.9265976,196.712057 85,186.405674 L131,176 L124.465458,218 C107.463731,216.073759 94.4939551,214.544681 91.1968912,214.167376 Z M125,220.851852 L123.065604,233 L82,223.241975 L90.9667291,217 C94.029522,217.355556 107.368791,218.896296 125,220.851852 Z M85.2772277,184 C83.5742574,174.468019 82.0693069,165.057722 81,158 L133,166.700468 L132.009901,173.190328 L85.2772277,184 Z M165.481229,221.528775 C165.481229,221.68585 165.501219,221.842925 165.501219,222 C152.087762,220.605958 138.694295,219.153013 127,217.857143 L130.938079,193 L168,197.928233 C165.921014,204.859174 165.061433,212.791469 165.481229,221.528775 Z M126.951131,221 C138.757466,222.32048 152.315837,223.798629 165.854299,225.237361 C166.431674,232.470437 167.765611,239.053128 169,244 L125,233.45587 L126.951131,221 Z M3,137.435499 L22.8369059,113 L46,133.188472 C40.1891892,141.541629 34.4184529,149.170174 29.1486486,155.772187 C28.8280522,156.194876 28.4874185,156.597438 28.166822,157 L3,137.435499 Z M37.7722879,205.810945 L15,176.099502 C19.2126745,171.343284 23.8625134,165.930348 28.6911923,160 L51.6820623,177.810945 L82.6809882,186.228856 C84.6283566,196.756219 86.8340494,207.243781 89,214.646766 L64.5982814,232 C54.1262084,222.447761 43.5150376,211.800995 37.7722879,205.810945 Z M119.316166,252.935985 C104.735336,253.077381 94.0200286,252.996583 91.1759657,252.572393 C86.6494993,251.885608 76.5550787,243.785586 66,234.190798 L78.8383405,225 L122,235.544168 L119.316166,252.935985 Z M122,253 L124.5643,236 L169.588641,247.244578 C170.145233,249.333735 170.642191,250.992771 171,252.119277 C153.705882,252.508434 136.212982,252.856627 122,253 Z M168,225 C182.429448,226.525915 196.720151,227.972561 208.751298,229.042683 L210,250.108232 C198.979707,250.385671 186.254837,250.702744 173.33176,251 C172.340727,248.027439 169.050496,237.544207 168,225 Z M262.749275,272 L233.109079,272 L177.461744,261.425511 C176.627928,258.134372 175.655142,255.427459 175,253.791626 C209.643096,253.032132 242.47959,252.097371 245.397948,252 C245.894267,252 254.510373,252.077897 264,252.934761 C262.947803,258.699124 262.352219,265.145083 262.749275,272 Z M264.857093,251 C255.090239,250.082621 246.264045,250.042735 245.603581,250.022792 L245.563553,250.022792 C245.123244,250.042735 231.853933,250.421652 213.240871,250.900285 L212,230 C223.608146,231.017094 232.874649,231.655271 237.77809,231.655271 C237.898174,231.655271 238.018258,231.655271 238.118329,231.655271 C238.378511,231.655271 238.638694,231.655271 238.878862,231.655271 C256.291081,231.655271 266.077949,235.643875 269,237.039886 C267.498947,240.868946 265.997893,245.615385 264.857093,251 Z" id="Shape"></path>
            <path d="M547.798029,236.916869 C551.384659,227.73111 555.608913,222.43853 555.648764,222.378753 L556.155958,221.174668 L555.608913,219.848128 C555.449507,220.067311 549.61127,225.858092 546.104342,234.366376 C542.697043,232.712541 532.514998,228.70747 514.42244,228.827025 C509.819597,228.84695 500.673689,228.229253 489.096843,227.213041 L516.175903,175.964077 L532.828236,185.19667 L555.648764,182 L555.648764,177.637837 L534.109056,181.901943 L552.819312,146.434152 C553.755821,146.832667 556.392115,134.598272 557.328625,134.97686 L555.608913,131.5 C552.819312,150.749999 543.075632,139.420297 537.058063,136.451364 L550.592907,111.165619 L556.155958,86.8163834 L555.608913,83.5352368 L548.316098,109.790744 L514.741251,74.1436223 C526.796315,68.0064991 543.055706,61.7298957 558,58.4222254 L556.155958,56.4296529 C552.708808,57.1868305 548.694686,58.1831167 545.207685,59.1993287 L518.28803,24.5285673 L516.315384,26.0628482 L542.597415,59.9764319 C535.563634,62.148336 528.470076,64.8781603 521.376518,68.1061277 C510.357592,73.1274104 499.298814,79.4239394 488.499072,86.8163834 C483.557492,90.1838309 479.133981,93.4915012 475.26839,96.5202114 C457.135981,81.914655 442.032281,66.9902871 430.216326,54.0186402 C432.746893,52.0459934 439.083274,46.6859734 445.100843,38.3769462 C449.564205,32.2198972 452.911727,25.7241108 455.043779,19.0689187 C457.036352,12.8321668 457.972861,6.45593487 457.833381,0.0199257249 L455.32274,0.0199257249 C455.661477,15.860877 449.105913,28.5934152 443.128196,36.8426653 C437.210256,45.0321383 430.834024,50.3523068 428.542565,52.1456221 C411.944437,33.7143265 399.849521,17.0165691 392.516855,6.09727182 C393.493215,5.1209113 394.409799,4.26410513 395.306456,3.48700186 C396.860663,2.11212684 398.355092,0.97636052 399.749893,0 L395.545565,0 C395.00757,0.418440223 394.469576,0.876731895 393.911655,1.35494929 C392.955221,2.17190401 392.018712,3.04863591 391.082203,3.96521925 C390.145693,2.51064134 389.288887,1.19554349 388.511784,0 L385.542851,0 C386.578989,1.63390944 387.814384,3.58663048 389.288887,5.79838594 C385.024782,10.3215255 380.900157,15.8409513 377.014641,22.2968862 C371.335809,31.721754 366.115269,43.1790459 361.45265,56.4296529 L336.127053,25.9432938 L360.23718,0 L356.809956,0 L334.51307,23.9905728 L314.567419,0 L311.2996,0 L332.779531,25.8436652 L318.373232,41.3458792 L276.648764,14.5457792 L276.648764,17.5346379 L316.639694,43.238823 L294.263105,67.3290244 L296.096272,69.0426368 L311.02064,52.9825025 L353.542137,78.1686188 C345.531995,97.1777603 334.672475,115.369947 323.852807,131.031567 L300.958149,111.165619 L317.376946,91.0207113 L315.424225,89.4266533 L307.99193,98.5526353 L276.648764,66.0338523 L276.648764,69.6404085 L306.417797,100.525282 L299.085131,109.53171 L276.648764,90.0443508 L276.648764,93.3719469 L297.491073,111.464505 L277.664976,135.773889 L276.628839,134.97686 L276.628839,138.145051 L303.090201,158.628696 C298.407656,164.38723 293.904442,169.627696 289.779817,174.27039 L276.628839,157.134267 L276.628839,161.258892 L288.086131,176.18326 C283.682545,181.084988 279.777103,185.249464 276.648764,188.477432 L276.648764,192.083988 C279.956435,188.696615 284.439723,183.994144 289.660263,178.195758 L312.256035,207.626053 L312.335738,207.725682 C312.435366,207.845236 323.215184,219.06342 335.290173,230.361306 C336.545494,231.536923 337.780888,232.67269 338.976432,233.768604 L312.515069,252.558563 L313.969647,254.610913 L340.869376,235.502143 C354.139909,247.497429 363.146336,253.933438 367.64955,254.610913 C370.558706,255.049279 381.199043,255.128982 395.625268,255.009427 L392.755963,273.420797 L319.748107,269.754464 L319.628553,272.265105 L357.367876,274.158049 L358.164905,278.980074 L360.735324,278.980074 L359.95822,274.297529 L392.3973,275.931438 L391.919083,279 L394.44965,279 L398.175761,255.009427 C412.781317,254.869947 430.834024,254.53121 448.587845,254.132695 C449.82324,257.221183 454.167048,268.997286 452.473361,279 L455.023854,279 C455.681403,274.815598 455.442294,269.993572 454.346379,264.553849 L509.221825,275.194187 L509.34138,275.214112 L539.508927,275.214112 C539.608556,276.449507 539.72811,277.744679 539.86759,279 L542.398157,279 C542.258677,277.744679 542.139123,276.449507 542.039494,275.214112 L555.608913,275.214112 L555.608913,272.703471 L541.840237,272.703471 C541.441723,265.769319 542.019569,259.253607 543.095558,253.435295 C547.439366,253.893587 551.823025,254.53121 555.608913,255.407942 L555.608913,252.837523 C551.902728,252.000643 547.718326,251.402871 543.593701,250.964505 C544.769319,245.465005 546.323525,240.702757 547.798029,236.916869 Z M550.628839,145.754967 L532.066339,181 L517.628839,173.966887 L536.072348,139 C540.891459,141.403974 545.750233,143.649007 550.628839,145.754967 Z M490.281609,88.5548173 C496.578011,84.269103 504.213647,79.5249169 512.848713,75 L547.628839,111.817276 L535.335863,135 C513.708222,124.056478 494.419244,111.099668 477.628839,97.7840532 C481.326726,94.9136213 485.564304,91.7641196 490.281609,88.5548173 Z M427.786319,55.3408521 C431.034351,58.9699248 434.302067,62.518797 437.628839,66.0075188 L399.971358,79 L397.628839,57.3458647 L427.471358,55 C427.589469,55.1203008 427.687894,55.2205514 427.786319,55.3408521 Z M390.635585,8 C397.9051,18.8879068 409.655822,35.1795902 425.628839,53.1988751 L363.628839,58 C372.770503,31.7444757 382.688909,16.6380072 390.635585,8 Z M312.628839,51.2829876 L334.385099,28 L360.628839,59.3892116 C360.228171,60.5643154 359.827503,61.7593361 359.426835,62.9543568 C358.004465,67.3360996 356.38176,71.6780083 354.618822,76 L312.628839,51.2829876 Z M361.574838,63.9321686 C361.956785,62.7697842 362.338732,61.6274409 362.720679,60.5051387 L395.326907,58 L399.628839,97 L348.628839,94.7954779 C354.016304,84.1937307 358.338338,73.852518 361.574838,63.9321686 Z M337.801725,114.055172 C341.349534,108.173668 344.618302,102.371912 347.568166,96.649906 L399.669141,98.9028213 L401.044415,111.463323 L403.535854,111.184201 L400.267086,81.4776176 L440.050386,68 C450.713745,78.8060188 461.795666,88.8743574 473.196492,98.1053292 C463.94827,105.522006 442.453498,126.718368 442.393703,126.798117 L444.694428,128.93438 C444.774154,128.854631 465.841763,107.216677 475.209575,99.7202508 C478.298959,102.172539 481.388344,104.584953 484.517591,106.917618 C491.473689,112.121254 498.529445,117.005893 505.684858,121.571536 L495.818759,148.90558 L403.535854,111.024702 L401.044415,111.463323 L494.961704,151.258182 L484.776701,179.44953 L487.128619,180.306834 L507.837461,122.94721 C516.328286,128.27047 524.918768,133.135172 533.628839,137.541317 L486.35129,227 C474.113341,225.903448 459.483611,224.428088 444.734291,222.872978 C444.71436,222.553981 444.694428,222.254922 444.694428,221.935925 C443.65799,200.144451 450.235389,184.47373 464.247242,175.362382 L462.871968,173.249028 C454.700048,178.552351 448.860115,186.108589 445.491689,195.698433 C445.491689,195.698433 445.491689,195.71837 445.491689,195.71837 L408.140034,190.654295 L415.549326,116.564779 L413.76072,116.564779 L409.67476,164.416803 L356.557278,155.744075 C355.720155,150.241379 347.588098,96.7894671 347.568166,96.649906 L345.704683,96.649906 C345.744546,96.9489655 355.281662,165.094671 358.670019,183.716113 L329.211243,175.721254 L306.628839,158.196364 C306.947743,157.817555 307.246716,157.418809 307.56562,157.04 C319.125897,142.565517 329.3109,128.110972 337.801725,114.055172 Z M367.82573,214.167376 C365.720376,206.939007 363.555436,196.712057 361.628839,186.405674 L407.628839,176 L401.094296,218 C384.092569,216.073759 371.122794,214.544681 367.82573,214.167376 Z M401.628839,220.851852 L399.694443,233 L358.628839,223.241975 L367.595568,217 C370.658361,217.355556 383.99763,218.896296 401.628839,220.851852 Z M361.906066,184 C360.203096,174.468019 358.698146,165.057722 357.628839,158 L409.628839,166.700468 L408.63874,173.190328 L361.906066,184 Z M442.110067,221.528775 C442.110067,221.68585 442.130058,221.842925 442.130058,222 C428.716601,220.605958 415.323134,219.153013 403.628839,217.857143 L407.566918,193 L444.628839,197.928233 C442.549853,204.859174 441.690272,212.791469 442.110067,221.528775 Z M403.57997,221 C415.386305,222.32048 428.944676,223.798629 442.483137,225.237361 C443.060513,232.470437 444.39445,239.053128 445.628839,244 L401.628839,233.45587 L403.57997,221 Z M279.628839,137.435499 L299.465745,113 L322.628839,133.188472 C316.818028,141.541629 311.047292,149.170174 305.777487,155.772187 C305.456891,156.194876 305.116257,156.597438 304.795661,157 L279.628839,137.435499 Z M314.401127,205.810945 L291.628839,176.099502 C295.841513,171.343284 300.491352,165.930348 305.320031,160 L328.310901,177.810945 L359.309827,186.228856 C361.257195,196.756219 363.462888,207.243781 365.628839,214.646766 L341.22712,232 C330.755047,222.447761 320.143876,211.800995 314.401127,205.810945 Z M395.945005,252.935985 C381.364175,253.077381 370.648867,252.996583 367.804804,252.572393 C363.278338,251.885608 353.183917,243.785586 342.628839,234.190798 L355.467179,225 L398.628839,235.544168 L395.945005,252.935985 Z M398.628839,253 L401.193139,236 L446.21748,247.244578 C446.774072,249.333735 447.271029,250.992771 447.628839,252.119277 C430.334721,252.508434 412.84182,252.856627 398.628839,253 Z M444.628839,225 C459.058287,226.525915 473.34899,227.972561 485.380137,229.042683 L486.628839,250.108232 C475.608546,250.385671 462.883676,250.702744 449.960599,251 C448.969565,248.027439 445.679334,237.544207 444.628839,225 Z M539.378114,272 L509.737917,272 L454.090583,261.425511 C453.256766,258.134372 452.28398,255.427459 451.628839,253.791626 C486.271935,253.032132 519.108428,252.097371 522.026787,252 C522.523106,252 531.139211,252.077897 540.628839,252.934761 C539.576642,258.699124 538.981058,265.145083 539.378114,272 Z M541.485931,251 C531.719078,250.082621 522.892884,250.042735 522.23242,250.022792 L522.192392,250.022792 C521.752083,250.042735 508.482771,250.421652 489.86971,250.900285 L488.628839,230 C500.236985,231.017094 509.503488,231.655271 514.406929,231.655271 C514.527013,231.655271 514.647097,231.655271 514.747167,231.655271 C515.00735,231.655271 515.267533,231.655271 515.507701,231.655271 C532.91992,231.655271 542.706788,235.643875 545.628839,237.039886 C544.127785,240.868946 542.626732,245.615385 541.485931,251 Z" id="Shape-Copy" transform="translate(417.314419, 139.500000) scale(-1, -1) translate(-417.314419, -139.500000) "></path>
        </g>
    </g>
</svg>